<?xml version="1.0" encoding="utf-8"?>
<!-- Generator: Adobe Illustrator 22.0.1, SVG Export Plug-In . SVG Version: 6.00 Build 0)  -->
<svg version="1.1" id="Background" xmlns="http://www.w3.org/2000/svg" xmlns:xlink="http://www.w3.org/1999/xlink" x="0px" y="0px"
	 viewBox="0 0 256 256" style="enable-background:new 0 0 256 256;" xml:space="preserve">
<style type="text/css">
	.st0{fill:none;}
	.st1{fill:#FFFFFF;}
</style>
<path class="st0" d="M0,0h256v256H0V0z"/>
<path class="st1" d="M32,53.3h21.3V32C41.6,32,32,41.6,32,53.3z M32,138.7h21.3v-21.3H32V138.7z M74.7,224H96v-21.3H74.7V224z
	 M32,96h21.3V74.7H32V96z M138.7,32h-21.3v21.3h21.3V32z M202.7,32v21.3H224C224,41.6,214.4,32,202.7,32z M53.3,224v-21.3H32
	C32,214.4,41.6,224,53.3,224z M32,181.3h21.3V160H32V181.3z M96,32H74.7v21.3H96V32z M117.3,224h21.3v-21.3h-21.3V224z M202.7,138.7
	H224v-21.3h-21.3V138.7z M202.7,224c11.7,0,21.3-9.6,21.3-21.3h-21.3V224z M202.7,96H224V74.7h-21.3V96z M202.7,181.3H224V160h-21.3
	V181.3z M160,224h21.3v-21.3H160V224z M160,53.3h21.3V32H160V53.3z M74.7,181.3h106.7V74.7H74.7V181.3z M96,96h64v64H96V96z"/>
</svg>
