<?xml version="1.0" encoding="utf-8"?>
<!-- Generator: Adobe Illustrator 22.0.1, SVG Export Plug-In . SVG Version: 6.00 Build 0)  -->
<svg version="1.1" id="Background" xmlns="http://www.w3.org/2000/svg" xmlns:xlink="http://www.w3.org/1999/xlink" x="0px" y="0px"
	 viewBox="0 0 256 256" style="enable-background:new 0 0 256 256;" xml:space="preserve">
<style type="text/css">
	.st0{display:none;fill:none;}
	.st1{fill:none;}
	.st2{fill:#FFFFFF;}
</style>
<path class="st0" d="M256.5,0.5l-1,256l-256-1l1-256L256.5,0.5z"/>
<path class="st1" d="M0,0h256v256H0V0z"/>
<path class="st2" d="M138.7,32h-21.3v106.7h21.3V32z M190.2,55.1L175,70.3c16.9,13.5,27.6,34.3,27.6,57.7
	c0,41.3-33.4,74.7-74.7,74.7S53.3,169.3,53.3,128c0-23.4,10.8-44.2,27.5-57.8l-15-15C45.1,72.7,32,98.8,32,128c0,53,43,96,96,96
	s96-43,96-96C224,98.8,210.9,72.7,190.2,55.1z"/>
</svg>
