<?xml version="1.0" encoding="utf-8"?>
<!-- Generator: Adobe Illustrator 22.0.1, SVG Export Plug-In . SVG Version: 6.00 Build 0)  -->
<svg version="1.1" id="Background" xmlns="http://www.w3.org/2000/svg" xmlns:xlink="http://www.w3.org/1999/xlink" x="0px" y="0px"
	 viewBox="0 0 256 256" style="enable-background:new 0 0 256 256;" xml:space="preserve">
<style type="text/css">
	.st0{display:none;fill:none;}
	.st1{fill:none;}
	.st2{fill:#FFFFFF;}
</style>
<path class="st0" d="M256.5,0.5l-1,256l-256-1l1-256L256.5,0.5z"/>
<path class="st1" d="M-1.5-1.5h258.9v258.9H-1.5V-1.5z"/>
<path class="st2" d="M74.1,149.6c-17.9,0-32.4,14.5-32.4,32.4c0,14.1-12.5,21.6-21.6,21.6c9.9,13.2,26.9,21.6,43.2,21.6
	c23.8,0,43.2-19.3,43.2-43.2C106.4,164,92,149.6,74.1,149.6z M222,48.5L207.5,34c-4.2-4.2-11-4.2-15.2,0l-96.7,96.7l29.7,29.7
	L222,63.7C226.2,59.5,226.2,52.7,222,48.5z"/>
</svg>
