<?xml version="1.0" encoding="utf-8"?>
<!-- Generator: Adobe Illustrator 22.0.1, SVG Export Plug-In . SVG Version: 6.00 Build 0)  -->
<svg version="1.1" id="Background" xmlns="http://www.w3.org/2000/svg" xmlns:xlink="http://www.w3.org/1999/xlink" x="0px" y="0px"
	 viewBox="0 0 256 256" style="enable-background:new 0 0 256 256;" xml:space="preserve">
<style type="text/css">
	.st0{fill:#FFFFFF;}
</style>
<g>
	<g>
		<path class="st0" d="M83.8,241.1h-8.5c-4.8,4.7-10,8.6-15.6,11.7h24.1c1.5,0,2.7-1.2,2.7-2.7v-6.4
			C86.4,242.3,85.2,241.1,83.8,241.1z"/>
		<path class="st0" d="M133.6,241.1h-32.4c-1.5,0-2.7,1.2-2.7,2.7v6.4c0,1.5,1.2,2.7,2.7,2.7h32.4c1.5,0,2.7-1.2,2.7-2.7v-6.4
			C136.2,242.3,135,241.1,133.6,241.1z"/>
		<path class="st0" d="M183.3,241.1h-32.4c-1.5,0-2.7,1.2-2.7,2.7v6.4c0,1.5,1.2,2.7,2.7,2.7h32.4c1.5,0,2.7-1.2,2.7-2.7v-6.4
			C186,242.3,184.8,241.1,183.3,241.1z"/>
		<path class="st0" d="M233.1,241.1h-32.4c-1.5,0-2.7,1.2-2.7,2.7v6.4c0,1.5,1.2,2.7,2.7,2.7h32.4c1.5,0,2.7-1.2,2.7-2.7v-6.4
			C235.8,242.3,234.6,241.1,233.1,241.1z"/>
		<path class="st0" d="M83.9,213.5c17.5-34.1,23-43.1,30-48.2l-15.6-15.6l-98,98c-0.7,0.7-0.4,1.9,0.6,2.2c3.6,1,11.6,2.9,21.5,2.9
			c7.9,0,17.1-1.2,26.3-5c4.1-1.7,8.2-3.9,12.1-6.7C69.3,235.1,77.3,226.3,83.9,213.5z"/>
		<path class="st0" d="M239.3,13.1c-2.8-2.8-6.4-4.2-10.1-4.2c-3.6,0-7.3,1.4-10,4.2l-119,119c-1.7,1.7-1.7,4.5,0,6.2l7.3,7.3
			l12.2-12.2l34.8-34.8l28.1-28.1c0.2-0.2,0.3-0.3,0.5-0.5c0,0,0.1-0.1,0.1-0.1c0.1-0.1,0.2-0.1,0.3-0.2c2.9-2.1,6.9-1.8,9.5,0.8
			l1,1c2.3,2.3,2.8,5.7,1.4,8.5c-0.3,0.7-0.8,1.4-1.4,1.9l-37.5,37.5l-26,26L118.9,157l7.3,7.3c0.8,0.8,2,1.3,3.1,1.3
			c1.1,0,2.2-0.4,3.1-1.3l119-119c5.5-5.5,5.5-14.5,0-20.1L239.3,13.1z"/>
	</g>
</g>
</svg>
