<?xml version="1.0" encoding="utf-8"?>
<!-- Generator: Adobe Illustrator 22.0.1, SVG Export Plug-In . SVG Version: 6.00 Build 0)  -->
<svg version="1.1" id="Background" xmlns="http://www.w3.org/2000/svg" xmlns:xlink="http://www.w3.org/1999/xlink" x="0px" y="0px"
	 viewBox="0 0 256 256" style="enable-background:new 0 0 256 256;" xml:space="preserve">
<style type="text/css">
	.st0{fill:none;}
	.st1{fill:#FFFFFF;}
</style>
<path class="st0" d="M0,0h256v256H0V0z"/>
<path class="st0" d="M0-27h276v276H0V-27z"/>
<path class="st1" d="M251.8,37.4L218.6,4.2c-5.5-5.5-14.5-5.5-20.1,0l-44.4,44.4l-27.4-27.2l-20.1,20.1l20.2,20.2L0,188.5V256h67.5
	l126.8-126.8l20.2,20.2l20.1-20.1L207.3,102l44.4-44.4C257.4,51.9,257.4,43,251.8,37.4z M55.7,227.6l-27.3-27.3L143.1,85.6
	l27.3,27.3L55.7,227.6z"/>
</svg>
