<?xml version="1.0" encoding="utf-8"?>
<!-- Generator: Adobe Illustrator 22.0.1, SVG Export Plug-In . SVG Version: 6.00 Build 0)  -->
<svg version="1.1" id="Background" xmlns="http://www.w3.org/2000/svg" xmlns:xlink="http://www.w3.org/1999/xlink" x="0px" y="0px"
	 viewBox="0 0 256 256" style="enable-background:new 0 0 256 256;" xml:space="preserve">
<style type="text/css">
	.st0{fill:#FFFFFF;}
</style>
<path class="st0" d="M251.6,4.9C241.4-5.3,230,0.8,225.2,8.1c-6.6,10.1-14,19.7-21.8,28.8c-3.9-1.9-8.6-1.8-12.5,0.3
	c-5.4-4.2-13.2-3.9-18.2,1.1L38.8,172.2c-5,5-5.3,12.8-1.1,18.2c-2.1,3.9-2.2,8.5-0.3,12.5c-9.2,7.8-18.8,15.2-28.8,21.8
	c-7.3,4.8-13.5,16.2-3.2,26.5s21.7,4.1,26.5-3.2c6.6-10.1,14-19.7,21.8-28.8c3.9,1.9,8.6,1.8,12.5-0.3c5.4,4.2,13.2,3.9,18.2-1.1
	L218.2,83.8c5-5,5.3-12.8,1.1-18.2c2.1-3.9,2.2-8.5,0.3-12.5c9.2-7.8,18.8-15.2,28.8-21.8C255.7,26.6,261.9,15.2,251.6,4.9z"/>
</svg>
