<?xml version="1.0" encoding="utf-8"?>
<!-- Generator: Adobe Illustrator 22.0.1, SVG Export Plug-In . SVG Version: 6.00 Build 0)  -->
<svg version="1.1" id="Background" xmlns="http://www.w3.org/2000/svg" xmlns:xlink="http://www.w3.org/1999/xlink" x="0px" y="0px"
	 viewBox="0 0 256 256" style="enable-background:new 0 0 256 256;" xml:space="preserve">
<style type="text/css">
	.st0{display:none;fill:none;}
	.st1{fill:none;}
	.st2{fill:#FFFFFF;}
</style>
<path class="st0" d="M256.5,0.5l-1,256l-256-1l1-256L256.5,0.5z"/>
<path class="st1" d="M0,0h256v256H0V0z"/>
<path class="st2" d="M219.4,158.5l15.3-15.3L219.4,128l-38.1,38.1L89.9,74.7L128,36.6l-15.3-15.3L97.5,36.6L82.2,21.3L59.4,44.2
	L44.2,28.9L28.9,44.2l15.3,15.3L21.3,82.2l15.3,15.3l-15.3,15.3L36.6,128l38.1-38.1l91.4,91.4L128,219.4l15.3,15.3l15.3-15.3
	l15.3,15.3l22.8-22.8l15.3,15.3l15.3-15.3l-15.3-15.3l22.8-22.8L219.4,158.5z"/>
</svg>
