<?xml version="1.0" encoding="utf-8"?>
<!-- Generator: Adobe Illustrator 22.0.1, SVG Export Plug-In . SVG Version: 6.00 Build 0)  -->
<svg version="1.1" id="Background" xmlns="http://www.w3.org/2000/svg" xmlns:xlink="http://www.w3.org/1999/xlink" x="0px" y="0px"
	 viewBox="0 0 256 256" style="enable-background:new 0 0 256 256;" xml:space="preserve">
<style type="text/css">
	.st0{display:none;fill:none;}
	.st1{fill:#FFFFFF;}
</style>
<path class="st0" d="M256.5,0.5l-1,256l-256-1l1-256L256.5,0.5z"/>
<path class="st1" d="M206.4,107.1c-7.3-36.8-39.6-64.4-78.4-64.4c-30.8,0-57.6,17.5-70.9,43.1C25,89.2,0,116.4,0,149.3
	c0,35.3,28.7,64,64,64h138.7c29.4,0,53.3-23.9,53.3-53.3C256,131.8,234.1,109,206.4,107.1z M149.3,138.7v42.7h-42.7v-42.7h-32
	L128,85.3l53.3,53.3H149.3z"/>
</svg>
